<?xml version="1.0" encoding="UTF-8"?>
<svg id="Layer_1" data-name="Layer 1" xmlns="http://www.w3.org/2000/svg" version="1.1" viewBox="0 0 360 360">
  <defs>
    <style>
      .cls-1 {
        fill: #fff20f;
        stroke: #000;
        stroke-miterlimit: 10;
      }

      .cls-2 {
        fill: #000;
        stroke-width: 0px;
      }

      .cls-3 {
        isolation: isolate;
      }
    </style>
  </defs>
  <rect class="cls-1" x="65" y="142.7" width="227" height="64.4" rx="12" ry="12"/>
  <g class="cls-3">
    <g class="cls-3">
      <g class="cls-3">
        <g class="cls-3">
          <path class="cls-2" d="M155,164.9l-1.1.6c-2-3.2-5-4.8-9-4.8-8.9,0-13.9,10.2-13.9,18.8s3.6,9.8,8.9,9.8,7.7-1.9,10.7-4.7l1.1,1.2c-3.7,3.5-8.1,5.3-12.6,5.3-7.3,0-12.9-5.5-12.9-12.7,0-11.1,8.4-19.4,18.6-19.4s5.3.6,6.9,1.6l.7-1.1h1.1l1.4,5.5h.1Z"/>
          <path class="cls-2" d="M155.8,174.4c0,5.1-3.8,9-9.1,9s-7.4-2.9-7.4-6.7,3.8-9,9.1-9,7.4,2.9,7.4,6.7ZM152,173c0-2.2-1-3.7-3.4-3.7-3.8,0-5.3,5.9-5.3,8.8s1,3.7,3.4,3.7c3.8,0,5.3-5.9,5.3-8.8Z"/>
          <path class="cls-2" d="M167.2,182.9l2.6-10.6c.5-1.7-.3-2.4-1.6-2.4s-2.5.5-3.8,1.2l-2.3,9.2c-.3,1,0,1.4,1.6,1.5l-.3,1.1h-7.9l.3-1.1c1.7-.2,2.1-.5,2.4-1.5l2-8c.2-.7,0-1-.6-1h-1.1l.3-1,5.1-2.6h1.5l-.4,1.5c1.5-.8,3.5-1.5,5.3-1.5s4.7.8,3.7,4.7l-1.9,7.9c-.3,1,0,1.4,1.5,1.5l-.3,1.1h-6.1Z"/>
          <path class="cls-2" d="M184,182.7c-.9.4-2.3.6-3.4.6-2.7,0-4.2-1-3.4-4.2l2.3-9.3h-1.9l.2-.9c2.9-1,4.5-2.7,5.8-5.6h1.5l-1.2,4.8h3.6l-.4,1.7h-3.7l-2.3,9.4c-.4,1.6,0,2.3,1.2,2.3s1.4-.1,2-.4l-.4,1.6h0Z"/>
          <path class="cls-2" d="M190.3,183.3c-2.4,0-4-1.2-4-3.2,0-3.8,4.5-5.8,11-5.9l.5-2c.6-2.3,0-3-1.6-3s-2.2.5-2.9,1.8c-.7,1.2-1.5,1.7-2.5,1.7s-1.4-.4-1.4-1.4c0-2.2,2.7-3.8,7.1-3.8s6,1.1,5.1,5l-1.8,7.3c-.3,1,0,1.5.6,1.5s.6,0,1.2-.3l-.4,1.4c-.9.5-1.8.8-3.1.8s-2.5-.5-2.5-1.9c-1.5,1.1-3.2,2-5.4,2h0ZM197,175.7c-4.1.1-6.3,1.4-6.3,3.6s.7,1.7,1.9,1.7,2.2-.5,3.4-1.3l1-4h0Z"/>
          <path class="cls-2" d="M215,171.5c0-1.3-.5-2.2-1.9-2.2-3.4,0-4.7,4.8-4.7,8.3s1.3,4,3.5,4,3.7-1.3,5.3-3.7l1.3,1c-1.9,2.8-3.8,4.5-7.1,4.5s-7.1-2.5-7.1-6.4,3.4-9.3,8.7-9.3,5.5,1.5,5.5,3.7-.8,1.9-1.9,1.9-1.8-.6-1.8-1.8h.2Z"/>
          <path class="cls-2" d="M227.8,182.7c-.9.4-2.3.6-3.4.6-2.7,0-4.2-1-3.4-4.2l2.3-9.3h-1.9l.2-.9c2.9-1,4.5-2.7,5.8-5.6h1.5l-1.2,4.8h3.6l-.4,1.7h-3.7l-2.3,9.4c-.4,1.6,0,2.3,1.2,2.3s1.4-.1,2-.4l-.4,1.6h0Z"/>
        </g>
      </g>
    </g>
  </g>
</svg>