<?xml version="1.0" encoding="UTF-8"?>
<svg id="Layer_1" data-name="Layer 1" xmlns="http://www.w3.org/2000/svg" version="1.1" viewBox="0 0 360 360">
  <defs>
    <style>
      .cls-1 {
        fill: #fff20f;
        font-family: Bookmania-SemiboldItalic, Bookmania;
        font-size: 12px;
        font-style: italic;
        font-weight: 600;
      }

      .cls-1, .cls-2 {
        isolation: isolate;
      }

      .cls-3 {
        fill: #c1b51a;
        stroke: #000;
        stroke-miterlimit: 10;
      }

      .cls-4 {
        fill: #000;
        stroke-width: 0px;
      }
    </style>
  </defs>
  <rect class="cls-3" x="65" y="142.7" width="227" height="64.4" rx="12" ry="12"/>
  <g>
    <path class="cls-4" d="M128.1,179.7c0,2.6-2.2,4.9-6,4.9s-5.4-2-6.7-3.4c-.8-.9-1.5-1.6-2.5-1.6s-1.1,1-1.8,1-.6-.2-.6-.5c0-.7,1.4-1.6,3.1-1.6h.3c1-.4,1.8-1.6,1.8-3.3s-.4-2.6-.4-4.1.2-2,.5-2.9c-1.5-1.1-2.9-2.1-4.7-2.1-2.6,0-4.3,1.6-4.3,3.5s.9,1.9,1.7,1.9,1-.3,1.1-.9c.2-.8.7-1.5,1.7-1.5s1.5.6,1.5,1.5c0,1.4-1.5,2.9-3.5,2.9s-4-1.3-4-3.7,2.5-4.9,5.7-4.9,3.8,1,5.3,2.2c1.2-1.8,3.3-2.8,5.7-2.8s4.5,1.6,4.5,3.5-1.9,4-4.2,4-2.6-.5-3.7-1.2v.2c0,1,0,2.1-.2,3-.3,2.8-1.7,4.4-3.1,5.2,1.3.5,2.4,1.4,3.4,2.3,1.3,1.1,2.6,2.3,4.3,2.3s3.6-1.6,3.6-3.5-1-2.2-1.8-2.2c-1.8,0-1.3,2.6-3.1,2.6s-1.5-.5-1.5-1.6,1.8-2.9,4-2.9,3.9,1.3,3.9,3.9v-.2h0ZM118.9,168.9c1.1.8,2.3,1.4,3.5,1.4s2.7-1.2,2.7-2.7-.8-2.3-2.8-2.3-3,1.4-3.4,3.6Z"/>
    <path class="cls-4" d="M132,174.4c-.2.8-.3,1.6-.3,2.3,0,1.7.8,2.9,2.7,2.9s2.8-.9,3.9-2.6l.9.6c-1.3,2.1-3,3.2-5.2,3.2s-5.1-2-5.1-4.6c0-3.9,2.9-6.5,6.2-6.5s4.8,1.6,4.3,4.7h-7.4,0ZM137.1,173.1c.3-1.6-.5-2.3-1.8-2.3s-2.4,1-2.9,2.3h4.7Z"/>
    <path class="cls-4" d="M143.1,180.7c-1.7,0-2.8-.8-2.8-2.3,0-2.7,3.2-4.1,7.8-4.2l.3-1.4c.4-1.6,0-2.1-1.1-2.1s-1.6.4-2,1.3c-.5.9-1.1,1.2-1.7,1.2s-1-.3-1-1c0-1.6,1.9-2.7,5-2.7s4.3.8,3.6,3.5l-1.3,5.1c-.2.7,0,1,.4,1s.5,0,.8-.2l-.3,1c-.6.4-1.3.5-2.2.5s-1.8-.4-1.7-1.4c-1,.8-2.3,1.4-3.8,1.4v.3h0ZM147.8,175.3c-2.9,0-4.5,1-4.5,2.6s.5,1.2,1.4,1.2,1.6-.3,2.4-.9l.7-2.9h0Z"/>
    <path class="cls-4" d="M151.8,180.4l.2-.8c1.2-.1,1.5-.3,1.7-1.1l1.4-5.7c.1-.5,0-.7-.4-.7h-.8l.2-.7,3.6-1.8h1l-.4,1.4c.9-.8,2.1-1.4,3.1-1.4s1.7.6,1.7,1.4-.7,1.7-1.6,1.7-1-1.1-1.8-1.1-1.2.3-1.8,1.1l-1.5,5.9c-.2.7,0,1,1.1,1.1l-.2.8h-5.6.1Z"/>
    <path class="cls-4" d="M169.7,180.4l1.8-7.5c.3-1.2-.2-1.7-1.2-1.7s-1.8.3-2.7.8l-1.6,6.5c-.2.7,0,1,1.1,1.1l-.2.8h-5.6l.2-.8c1.2-.1,1.5-.3,1.7-1.1l1.4-5.7c.1-.5,0-.7-.4-.7h-.8l.2-.7,3.6-1.8h1l-.3,1.1c1-.6,2.5-1.1,3.7-1.1s3.3.5,2.6,3.3l-1.4,5.6c-.2.7,0,1,1.1,1.1l-.2.8h-4.2.2,0Z"/>
    <path class="cls-4" d="M221.1,164.4l-.2.8c-1.7.1-2,.3-2.4,1.8l-2.7,10.9c-.4,1.5-.1,1.7,1.5,1.8l-.2.8h-7.2l.2-.8c1.7-.1,2.1-.3,2.4-1.8l2.7-10.9c-2.1,1.8-3.9,3.4-5.5,4.9v.9c0,5.1-2.2,8-4.2,8s-2.1-.9-2.1-2.1,1-3.2,3.5-5.8c0-1.4-.3-3.1-.6-5.2l-7.4,10.3c-3.8,5.2-7,7.4-11.2,7.4s-7.1-2.6-7.1-5.8,2.9-5.7,5.7-5.7,3,1,3,2.2-.7,1.8-1.7,1.8-1.2-.5-1.6-1.1c-.3-.5-.6-.9-1.3-.9-1.3,0-2.7,1.4-2.7,3.7s2.4,4.5,5.7,4.5,6.6-1.8,10.1-6.6l7.4-10.4c.6-.9.3-1.2-.5-1.2h-6.6c-3.6,0-5.8,1.9-5.8,4.5s.8,2.6,2.1,2.6,1.1-.3,1.1-.9-.3-.9-.3-1.4c0-1,.7-1.7,1.6-1.7s1.7.9,1.7,1.8c0,1.9-1.6,3.5-3.9,3.5s-3.7-1.4-3.7-4,2.9-5.7,7.3-5.7h10.6c.5,2.1.7,4.1.9,5.8,1.7-1.6,3.9-3.5,6.5-5.8h4.9v-.2h0ZM207.2,175.3v-.7c-1.3,1.6-2.1,2.9-2.1,4s.2.8.5.8c.6,0,1.6-.8,1.6-4.2h0Z"/>
    <path class="cls-4" d="M231,174.4c0,3.6-2.7,6.4-6.4,6.4s-5.2-2.1-5.2-4.7,2.7-6.4,6.4-6.4,5.2,2,5.2,4.7ZM228.2,173.4c0-1.6-.7-2.6-2.4-2.6-2.7,0-3.7,4.2-3.7,6.2s.7,2.6,2.4,2.6c2.7,0,3.7-4.2,3.7-6.2Z"/>
    <path class="cls-4" d="M230.7,180.4l.2-.8c1.2-.1,1.5-.3,1.7-1.1l1.4-5.7c.1-.5,0-.7-.4-.7h-.8l.2-.7,3.6-1.8h1l-.4,1.4c.9-.8,2.1-1.4,3.1-1.4s1.7.6,1.7,1.4-.7,1.7-1.6,1.7-1-1.1-1.8-1.1-1.2.3-1.8,1.1l-1.5,5.9c-.2.7,0,1,1.1,1.1l-.2.8h-5.6.1Z"/>
    <path class="cls-4" d="M244.8,174.4c-.2.8-.3,1.6-.3,2.3,0,1.7.8,2.9,2.7,2.9s2.8-.9,3.9-2.6l.9.6c-1.3,2.1-3,3.2-5.2,3.2s-5.1-2-5.1-4.6c0-3.9,2.9-6.5,6.3-6.5s4.8,1.6,4.3,4.7h-7.5,0ZM249.8,173.1c.3-1.6-.5-2.3-1.8-2.3s-2.4,1-2.9,2.3h4.7Z"/>
  </g>
  <g class="cls-2">
    <g class="cls-2">
      <text class="cls-1" transform="translate(384.6 342.4)"><tspan x="0" y="0">Learn More</tspan></text>
    </g>
  </g>
  <g class="cls-2">
    <g class="cls-2">
      <text class="cls-1" transform="translate(370.4 281.3)"><tspan x="0" y="0">Learn More</tspan></text>
    </g>
  </g>
</svg>