<?xml version="1.0" encoding="UTF-8"?>
<svg id="Layer_1" data-name="Layer 1" xmlns="http://www.w3.org/2000/svg" xmlns:xlink="http://www.w3.org/1999/xlink" version="1.1" viewBox="0 0 360 360">
  <defs>
    <style>
      .cls-1 {
        fill: #757d5c;
        stroke: #fff20f;
        stroke-miterlimit: 10;
      }

      .cls-2 {
        clip-path: url(#clippath);
      }

      .cls-3 {
        fill: none;
      }

      .cls-3, .cls-4 {
        stroke-width: 0px;
      }

      .cls-5 {
        clip-path: url(#clippath-1);
      }

      .cls-4 {
        fill: #fff20f;
      }
    </style>
    <clipPath id="clippath">
      <rect class="cls-3" x="60.4" y="137.7" width="239.1" height="73.9"/>
    </clipPath>
    <clipPath id="clippath-1">
      <rect class="cls-3" x="58.9" y="197.3" width="242.1" height="22.1"/>
    </clipPath>
  </defs>
  <ellipse class="cls-1" cx="180" cy="184.1" rx="170.7" ry="61.5"/>
  <g>
    <g class="cls-2">
      <g>
        <path class="cls-4" d="M290.8,190.7c-.6.8-1.4,1.2-2.3,1.2-2.3,0-3.4-1.6-3.4-6s1-6,3.4-6,1.8.4,2.3,1.3v9.5h0ZM288.9,173.2h1c.6,0,.8.3.8,1v4.2c-1.1-1-2.7-1.7-4.7-1.7-4.5,0-8,3.4-8,9.2s3.5,9.2,8,9.2,3.6-.6,4.7-1.7v1.7c2.9-.4,5.7-.6,8.7-.6v-1.9c-1.5-.2-1.9-.5-1.9-1.4v-23.2h-2.5l-6.2,3.2v1.8h0v.2h.1ZM278.5,194.6v-1.9c-1.5-.2-1.9-.5-1.9-1.4v-8.4c0-5.2-3.2-6.1-6.1-6.1s-4,.8-5.5,1.8v-1.8h-2.5l-6.2,3.2v1.8h1c.6,0,.8.3.8,1v8.5c0,.9-.4,1.2-1.9,1.4v1.9h10.6v-1.9c-1.5-.2-1.9-.5-1.9-1.4v-9.9c.8-.6,1.6-.8,2.6-.8s2.2.6,2.2,2.2v8.6c0,.9-.4,1.2-1.9,1.4v1.9h10.7,0ZM248,190.3c-.6.4-1.2.7-2,.7s-1.8-.6-1.8-1.8,1.5-2.4,3.8-3v4h0ZM248.1,192.8c.5,1.8,2.2,2.3,4.3,2.3s2.8.2,4-.5v-1.9c-.5.2-.8.2-1,.2-.6,0-.6-1.1-.6-1.9v-8.5c0-4.2-3.7-5.7-7.7-5.7s-8.8,1.7-8.8,4.8,1,2.6,2.4,2.6,2.8-.8,3.4-2.4c.7-1.7,1.1-2.3,2.3-2.3s1.6.7,1.6,2.8v1.5c-4.8.9-10.7,2.4-10.7,7s2,4.4,5,4.4,4.4-1.1,5.8-2.3M237,194.6v-1.9c-1.5-.2-1.9-.5-1.9-1.4v-23.2h-2.5l-6.2,3.2v1.8h1c.6,0,.8.3.8,1v17.1c0,.9-.4,1.2-1.9,1.4v1.9h10.7,0ZM217.6,190.7c-.6.8-1.4,1.2-2.3,1.2-2.3,0-3.4-1.6-3.4-6s1-6,3.4-6,1.8.4,2.3,1.3v9.5h0ZM215.9,173.2h1c.6,0,.8.3.8,1v4.2c-1.1-1-2.7-1.7-4.7-1.7-4.5,0-8,3.4-8,9.2s3.5,9.2,8,9.2,3.6-.6,4.7-1.7v1.7c2.9-.4,5.7-.6,8.7-.6v-1.9c-1.5-.2-1.9-.5-1.9-1.4v-23.2h-2.5l-6.2,3.2v1.8h0v.2h0ZM205.1,194.6v-1.9c-1.5-.2-1.9-.5-1.9-1.4v-8.4c0-5.2-3.2-6.1-6.1-6.1s-4,.8-5.5,1.8v-1.8h-2.5l-6.2,3.2v1.8h1c.6,0,.8.3.8,1v8.5c0,.9-.4,1.2-1.9,1.4v1.9h10.6v-1.9c-1.5-.2-1.9-.5-1.9-1.4v-9.9c.8-.6,1.6-.8,2.6-.8s2.2.6,2.2,2.2v8.6c0,.9-.4,1.2-1.9,1.4v1.9h10.7,0ZM173,181.8h1c.6,0,.8.3.8,1v7.6c-.8.6-1.6.8-2.6.8s-2.2-.6-2.2-2.2v-12.4h-2.5l-6.2,3.2v1.8h1c.6,0,.8.3.8,1v6.1c0,5.2,3.2,6.1,6.1,6.1s3.9-.8,5.5-1.8v1.8c2.9-.4,5.7-.6,8.7-.6v-1.9c-1.5-.2-1.9-.5-1.9-1.4v-14.5h-2.5l-6.2,3.2v2l.2.2h0ZM150.9,192.6c-2.4,0-3.1-2.2-3.1-6.6s.7-6.6,3.1-6.6,3.1,2.2,3.1,6.6-.7,6.6-3.1,6.6M150.9,176.8c-6.2,0-10.1,3.8-10.1,9.2s3.9,9.2,10.1,9.2,10.1-3.8,10.1-9.2-3.9-9.2-10.1-9.2M130.2,180.1h1.9v11.1c0,.9-.4,1.2-1.9,1.4v1.9h10.8v-1.9c-1.5-.2-2.1-.5-2.1-1.4v-11.1h2.8v-2.8h-2.8v-4.4c0-.9.4-1.8,1-1.8,1.1,0,.8,3.6,3.7,3.6s3.1-1.4,3.1-3.2-2.2-3.5-5.1-3.5c-5.1,0-9.7,3.2-9.7,9.1h-1.9v3h.2ZM119.9,194.6h4.9l4.7-13.2c.5-1.4.8-2.1,2.2-2.3v-1.9h-6.9v1.9c1.3.2,2.2.6,1.5,2.3l-2,5.5-2-5.5c-.6-1.8,0-2.1,1.4-2.3v-1.9h-10.2v1.9c.8.2,1.1,1,1.6,2.4l-1.9,5.5-2.1-5.6c-.6-1.8,0-2.1,1.2-2.3v-1.9h-10.6v1.9c1.2.2,1.6,1,2,2.3l4.8,13.2h5l3-8.7,3.2,8.7h.2ZM91.8,182.6c.3-2.3.9-3.2,2.5-3.2s2.2,1.2,2.2,3.2h-4.7ZM103,185.4c0-5.3-2.9-8.6-8.7-8.6s-9.5,3.8-9.5,9.2,3.9,9.2,10.1,9.2,7-2.3,8.6-5.5l-2.3-1.4c-1.4,2.6-3.4,4-5.4,4s-4-1.8-4-6.2v-.6h11.3,0ZM69,194.6v-1.9c-2.1-.2-2.6-.5-2.6-2.3v-14.9l11.9,19.1h4.9v-21.8c0-1.8.6-2.1,2.6-2.3v-1.9h-8.6v1.9c2.1.2,2.6.5,2.6,2.3v9.3l-8.5-13.4h-11.1v1.9c2.1.2,2.6.5,2.6,2.3v17.7c0,1.8-.6,2.1-2.6,2.3v1.9h8.6l.2-.2h0Z"/>
        <path class="cls-4" d="M116.2,151.6c0-1.7-.2-2.2-2.2-1.7l-2.5.5c-4.4.9-6.8,3.7-6,7,.4,2.1,1.9,3.3,3.7,2.9,1.1-.2,1.8-.8,1.6-1.5,0-.7-.7-.8-.8-1.6-.2-.8.3-1.3.9-1.4.8-.2,1.5.4,1.7,1.2.4,1.9-.9,3.8-3.3,4.2-2.5.5-4.4-.9-4.9-3.6-.7-3.3,1.1-7,6.9-8.1l9.4-2v.5c-2.3.7-2.8.8-2.9,3.3l-.4,10.1c-.2,3.7,2,5.3,5.9,4.5,2.8-.6,4.6-2.3,4.7-5.8l.5-13.4c.2-5.2,2.8-8,6.4-8.7,3.2-.7,6.1,1,6.8,4,.8,3.5-1,6.1-4.4,6.9-2.3.5-4.2-.8-4.6-2.7-.4-2,.5-3.7,1.7-3.9.8-.2,1.3.4,1.4.9.4,1.6-2.2,1.5-1.8,3.4.3,1.2,1.4,1.9,3.1,1.5,3.2-.7,4-3.3,3.6-5.7-.6-2.5-2.9-3.9-5.5-3.4-2.3.5-5.4,2.4-5.5,7.6l-.5,13.4c0,3.1-1.3,6-5.6,6.9-3.7.8-7.9,0-7.7-5.2l.4-10.1h0Z"/>
        <path class="cls-4" d="M142.3,163.3l.9-9.3c.2-1.8-.6-2.4-2-2.3-1.4.2-2.8.9-4.1,1.9l-.9,8.5c0,1.1.2,1.4,1.8,1.3v.5l-5.5.8v-.5c1.6-.4,2.1-.8,2.2-1.8l.8-7.4c0-.7-.2-.9-.8-.8l-1,.2v-.3l3.2-2.4h.5l-.2,1.3c1.1-.8,2.8-1.7,4.3-2,1.4-.2,3.6,0,3.3,3l-.8,7.3c0,1.1.2,1.4,1.8,1.3v.5l-3.5.5v-.2h0Z"/>
        <path class="cls-4" d="M158,152.6c-.6-1.8-2.3-2.4-3.6-2.3-3.9.4-4.9,5.3-4.7,8.1.2,2.4,1.5,3.6,3.2,3.4,2-.2,3.4-2.1,4.2-4l.8-5.1h.1ZM157.3,144.3l3.3-2.3h.6l-2.7,17.7c-.2,1,0,1.4,1.7,1.4v.5c-1.2,0-2.4.4-3.7.8l.4-2.3c-.9,1.4-2.2,2.4-4,2.6-2.7.3-4.6-1.8-4.8-4.4-.4-3.9,1.7-8.3,6.1-8.6,1.7-.2,3.3.6,4,1.8l.9-5.8c0-.7,0-.9-.8-.8h-1v-.6h0Z"/>
        <path class="cls-4" d="M172.4,152.4c.4-2.3-1.1-3.2-3-3.1-2.4,0-3.8,1.7-4.3,3.5l7.4-.4h0ZM164.8,153.5c-.3,1.1-.4,2.3-.3,3.1,0,2.3,1.2,4.1,4,3.9,1.8,0,3.6-1.4,4.6-3.4l.7.3c-1.1,2.3-3.2,3.8-5.5,3.9-3.5.2-5.5-2.1-5.6-5.1-.2-4.7,2.9-7.7,6.5-7.9,2.4,0,4.9,1,4.6,4.6l-9.1.4v.2h.1Z"/>
        <path class="cls-4" d="M174.8,160.7v-.5c1.7-.2,2.2-.5,2.4-1.5l1.8-7.3c.2-.7,0-.9-.8-.9h-1v-.3l3.5-2.1h.5l-.5,1.9c1.2-1.3,2.8-2,4-2s1.7.7,1.7,1.2-.4,1.1-1.1,1.1-1.1-1.1-2-1.1-2.1.7-2.9,2l-1.8,7.3c-.3,1,0,1.4,1.6,1.5v.5h-5.5v.2h.1Z"/>
        <path class="cls-4" d="M196.5,157.3c0,2.6-2.3,3.9-5.1,3.9s-3.1-.7-4.1-1.5l-.5,1h-.5l-.4-4.4h.5c.9,3.1,2.9,4.1,5.2,4.1s3.6-.7,3.7-2.6c0-1.6-1.5-2.2-3.3-2.6-2.7-.8-4.2-1.4-4.2-3.4s1.9-3.6,4.6-3.5c1.5,0,2.6.5,3.5,1.2l.4-.8h.5l.3,3.8h-.5c-.8-2.5-2.3-3.4-4.3-3.5-2.1,0-3.1.9-3.1,2.2s1.4,1.9,3,2.3c2.1.7,4.4,1.4,4.3,3.8"/>
        <path class="cls-4" d="M203.6,161c-.7.3-1.7.5-2.3.4-1.4,0-2.5-.8-1.8-3.1l2.6-8.4h-2v-.4c2.3-.6,3.3-2,4.3-4.2h.6l-1.2,3.9,3.4.2-.2.8-3.4-.2-2.6,8.6c-.4,1.2-.2,2,1,2s1.1,0,1.9-.3l-.2.8h-.2,0Z"/>
        <path class="cls-4" d="M215.5,156.2c-4.8-.4-7.4.8-7.7,3.1,0,1.1.7,1.8,1.9,1.9s2.8-.3,4.4-1.2l1.3-3.8h.1ZM209.2,162c-2.1-.2-3.4-1.2-3.2-2.8.3-3,3.8-4.1,9.7-3.7l.7-2c.8-2.2,0-3-1.8-3.1-1.4,0-2.5.3-3.2,1.5-.5.8-.8,1-1.3,1s-.7-.3-.7-.8c.2-1.6,2.4-2.8,5.3-2.5,2.1.2,4.1,1.2,3.2,4l-2.2,6.2c-.4,1-.3,1.7.4,1.7s.7,0,1.2-.3l-.3.8c-.6.3-1.2.5-1.9.4-.8,0-1.3-.7-1.2-1.6-1.3.8-2.7,1.3-4.7,1.1"/>
        <path class="cls-4" d="M228.2,163.8l3.5-8.6c.7-1.7,0-2.5-1.3-2.7s-3,0-4.5.8l-3.1,7.9c-.4,1-.2,1.4,1.3,1.7l-.2.4-5.5-.8.2-.4c1.6,0,2.2-.2,2.5-1.2l2.8-7c.2-.7,0-.9-.6-1l-1-.2v-.3l3.9-1.5h.5l-.5,1.3c1.2-.5,3.2-.9,4.7-.7,1.4.2,3.4,1,2.3,3.8l-2.7,6.9c-.4,1-.2,1.4,1.3,1.7l-.2.4-3.5-.5h.1Z"/>
        <path class="cls-4" d="M254.9,150.5c0-.6-.3-1-1.1-1.1-.9-.2-1.8.2-2.6,1.4.5.3,1,.6,1.6.7,1.1.2,2,0,2.2-.8M246.1,157.7c0-1.9-1.5-3-2.8-3.3-3.9-.8-6.1,3.8-6.7,6.6-.5,2.3.6,3.9,2.3,4.1,2,.4,3.9-1.1,5.2-2.8l2.1-4.6h-.1ZM255.6,150.6c-.3,1.4-1.8,1.8-3.1,1.5-.7,0-1.3-.4-1.9-.8-.2.4-.5.8-.7,1.3l-5.4,11.8c-.5,1-.3,1.3,1.2,1.8l-.2.4c-1.1-.2-2.3-.3-3.6-.3l.9-2.1c-1.2,1.1-2.8,1.8-4.6,1.4-2.6-.5-3.9-2.9-3.5-5.5.8-3.9,3.9-7.5,8.2-6.7,1.7.3,3,1.4,3.4,2.8l1.4-3c.5-1.1,1-2,1.6-2.7-.5-.4-.8-.8-1.3-1.1-1.3-1.2-2.6-2.5-4.7-2.9-1.2-.2-1.8.6-2.3,1.2-.5.6-.8,1-1.5.9-.5,0-.8-.5-.7-1,.3-1.3,2.1-2.3,4.6-1.9,2.3.5,3.9,1.9,5.3,3.1.4.4.8.8,1.2,1,1.2-1.3,2.5-1.7,3.7-1.5s1.9,1,1.8,2.1"/>
      </g>
    </g>
    <g class="cls-5">
      <path class="cls-4" d="M291.5,209.3c.3-1.2,1-2.2,2.6-2.2s2.2.8,2.2,2.2h-4.8ZM290.2,210.6c0,2.9,2.1,4.5,5.1,4.5,4.7,0,5.7-4.2,5.7-6.7s-1.7-5-3-5-1.1.3-1.1.9.3.8.8.8.5-.3,1.1-.3c.9,0,1.7,1.9,1.7,3.7s-.8,6.2-5.1,6.2-3.9-1.5-3.9-4,0-.6,0-.8h6c0-2.1-1.4-3.2-3.3-3.2s-3.9,1.9-3.9,4M286.9,213.5c-.5.7-1.3,1.1-2.3,1.1-2,0-2.7-1.7-2.7-3.8s.6-3.8,2.7-3.8,1.8.4,2.3,1.1v5.3h0ZM285.6,203.6h.7c.4,0,.6.2.6.6v3.4c-.5-.6-1.3-1-2.4-1-2.4,0-3.7,2-3.7,4.3s1.2,4.3,3.7,4.3,1.9-.4,2.4-1v1c.8-.2,1.6-.3,2.3-.3v-.3c-1.1,0-1.3-.3-1.3-1v-11.6h-.3l-2,1.3v.2h0ZM280,214.9v-.3c-1.1,0-1.3-.3-1.3-1v-7h-.3l-2,1.3v.2h.7c.4,0,.6.2.6.6v4.8c0,.7-.3.9-1.3,1v.3h3.6,0ZM278.2,202.8c-.4,0-.8.3-.8.8s.3.8.8.8.8-.3.8-.8-.3-.8-.8-.8M271.5,208.2h.7c.4,0,.6.2.6.6v4.9c-.8.5-1.7.9-2.7.9s-1.5-.5-1.5-1.7v-6.3h-.3l-2,1.3v.2h.7c.4,0,.6.2.6.6v4.2c0,1.9,1.5,2.2,2.4,2.2s2.1-.5,2.8-.9v.9c.8-.2,1.6-.3,2.3-.3v-.3c-1.1,0-1.3-.3-1.3-1v-7h-.3l-2,1.3v.4ZM258.9,202.7c2.5,0,4.3,1.2,4.3,2.8s-.7,2-2.4,2-4.1-1.1-5.9-2.2c.7-1.6,2-2.6,4-2.6M260.8,209.5c1.6,0,1.9.2,1.9,1.7v1.8c-.5.6-1.9,1.5-3.8,1.5-3.1,0-4.6-2.5-4.6-6s.1-2,.4-2.8c1.9,1.2,3.8,2.3,6.2,2.3s3.1-1,3.1-2.6-2-3.4-5-3.4-3.8,1-4.8,2.7c-1.7-1-3.4-1.9-5.3-1.9s-3.6,1.1-3.6,3.1,1.9,3.2,3.2,3.2,2.7-1,2.7-1.9-.4-.9-.8-.9c-.7,0-.9.5-1,1.1,0,.8-.5,1-1,1-1.2,0-2.4-.8-2.4-2.5s.9-2.5,2.9-2.5,3.4.8,5,1.8c-.5,1-.8,2.1-.8,3.3,0,3.7,2.5,6.6,5.9,6.6s2.9-.5,3.8-1.2v1.1c0,2.2-1.4,3.5-4.1,3.5s-3-.6-3.3-1.9c-.1-.6-.4-1-1-1s-.8.4-.8.8c0,1.4,2,2.7,5.1,2.7s5.2-1.6,5.2-4.5v-3.4c0-1.5.3-1.6,1.9-1.7v-.3h-4.9v.3h0ZM235,214.9v-.3c-1.1,0-1.3-.3-1.3-1v-5.4c.8-.6,1.8-.9,2.5-.9,1.5,0,2,1.3,2,3.8,0,4.4-.7,7.4-2.4,7.4s-1-.8-1.8-.8-.8.3-.8.8.5,1,1.5,1c3.2,0,4.6-3.8,4.6-8.4s-.9-4.4-2.9-4.4-2.2.5-2.9,1.1c-.5-.8-1.5-1.1-2.1-1.1-1,0-2.1.5-2.8.9v-.9h-.3l-2,1.3v.2h.7c.4,0,.6.2.6.6v4.8c0,.7-.3.9-1.3,1v.3h3.6v-.3c-1.1,0-1.3-.3-1.3-1v-5.5c.8-.5,1.7-.9,2.7-.9s1.5.5,1.5,1.7v4.7c0,.7-.3.9-1.3,1v.3h3.6-.1ZM222,210.1c-1.6-.3-2.8-.6-2.8-1.6s.6-1.3,1.9-1.3,2.4.5,3.2,2h.3c0-.1-.5-2.3-.5-2.3h-.3l-.2.4c-.6-.4-1.4-.7-2.5-.7-1.7,0-2.7,1-2.7,2.2,0,1.7,1.6,2,3.2,2.3,1.6.3,2.9.6,2.9,1.8s-1.1,1.7-2.2,1.7c-1.7,0-2.7-.6-3.8-2.4h-.3c0,.1.6,2.7.6,2.7h.3l.2-.6c.7.5,1.7.9,2.9.9,1.7,0,2.9-1,2.9-2.5s-1.7-2.2-3.2-2.6M217.2,214.9v-.3c-1.1,0-1.3-.3-1.3-1v-7h-.3l-2,1.3v.2h.7c.4,0,.6.2.6.6v4.8c0,.7-.3.9-1.3,1v.3h3.6ZM215.4,202.8c-.4,0-.8.3-.8.8s.3.8.8.8.8-.3.8-.8-.3-.8-.8-.8M211.9,208.2c.4,0,.7-.2.7-.7s-.3-.9-1.3-.9-1.8.4-2.5,1.3v-1.3h-.3l-2,1.3v.2h.7c.4,0,.6.2.6.6v4.8c0,.7-.3.9-1.3,1v.3h3.6v-.3c-1.1,0-1.3-.3-1.3-1v-5c.5-.8,1.2-1.1,1.7-1.1s.8.8,1.4.8M201.7,208.2h.7c.4,0,.6.2.6.6v4.9c-.8.5-1.7.9-2.7.9s-1.5-.5-1.5-1.7v-6.3h-.3l-2,1.3v.2h.7c.4,0,.6.2.6.6v4.2c0,1.9,1.5,2.2,2.4,2.2s2.1-.5,2.8-.9v.9c.8-.2,1.6-.3,2.3-.3v-.3c-1.1,0-1.3-.3-1.3-1v-7h-.3l-2,1.3v.4ZM191.6,214.7c-2,0-2.8-1.7-2.8-3.8s.8-3.8,2.8-3.8,2.8,1.7,2.8,3.8-.8,3.8-2.8,3.8M191.6,206.6c-2.4,0-4,1.9-4,4.3s1.6,4.3,4,4.3,4-1.9,4-4.3-1.6-4.3-4-4.3M183.5,203.4c1.2.4,2.4.7,3.8.7,3,0,4.4-1.7,4.4-3.7s-1.3-3.1-3.1-3.1-3,.9-3,2.4.4,1.2,1,1.2.8-.3.8-.8-.3-.7-.3-1.1c0-.6.7-1,1.6-1s2.4,1,2.4,2.5c0,2.2-1.5,3-3.8,3s-2.4-.5-3.7-1.1c-1.5-.6-3-1.2-4.5-1.2-2.7,0-3.7,1.7-3.7,3.1s1.2,2.8,2.9,2.8,1.9-.5,1.9-1.3-.3-.8-.8-.8c-1,0-1,1.3-1.7,1.3s-1.5-1-1.5-2,.7-2.1,2.4-2.1,2.7.5,4,.9v9.8c0,1.5-.3,1.6-1.9,1.7v.3h4.9v-.3c-1.6,0-1.9-.2-1.9-1.7v-9.5h-.2ZM160.9,209.3c.3-1.2,1-2.2,2.6-2.2s2.2.8,2.2,2.2h-4.8ZM159.7,210.6c0,2.9,2.1,4.5,5.1,4.5,4.7,0,5.7-4.2,5.7-6.7s-1.7-5-3-5-1.1.3-1.1.9.3.8.8.8.5-.3,1.1-.3c.9,0,1.7,1.9,1.7,3.7s-.8,6.2-5.1,6.2-3.9-1.5-3.9-4,0-.6,0-.8h6c0-2.1-1.4-3.2-3.3-3.2s-3.9,1.9-3.9,4M155.4,214.9l2.4-6c.5-1.2.9-1.6,1.6-1.7v-.3h-3.1v.3c1.1,0,1.4.5,1,1.5l-1.9,4.9-1.8-5c-.3-.9-.5-1.3,1-1.4v-.3h-3.4v.3c.9,0,1.1.5,1.5,1.7l2.2,6h.7-.2ZM150.8,214.9v-.3c-1.1,0-1.3-.3-1.3-1v-7h-.3l-2,1.3v.2h.7c.4,0,.6.2.6.6v4.8c0,.7-.3.9-1.3,1v.3h3.6ZM149,202.8c-.4,0-.8.3-.8.8s.3.8.8.8.8-.3.8-.8-.3-.8-.8-.8M146,214.2c-.4.2-.7.2-1.2.2-.8,0-1.1-.4-1.1-1.3v-5.8h2.2v-.5h-2.2v-2.6h-.3c-.2,1.5-.6,2.5-2,2.9v.2h1.3v5.7c0,1.5.8,1.9,1.8,1.9s1.1-.2,1.5-.4v-.5.2ZM138.8,213.4c-1,.7-1.9,1.1-2.8,1.1s-1.4-.4-1.4-1.3c0-1.6,1.7-2.1,4.3-2.5v2.7h-.1ZM138.8,214c.1.8.6,1.1,1.2,1.1s.8-.1,1.2-.4v-.5c-.3.2-.5.2-.7.2-.4,0-.6-.4-.6-1.1v-4.3c0-2-1.1-2.5-2.5-2.5-2.1,0-3.3,1.1-3.3,2s.2.7.5.7.5-.2.6-.8c.2-.9.9-1.4,2.1-1.4s1.5.6,1.5,2v1.2c-3.3.5-5.4,1.1-5.4,3s.9,1.9,2.4,1.9,2.2-.6,3-1.2M132.2,214.9v-.3c-1.1,0-1.3-.3-1.3-1v-4.7c0-1.9-1.5-2.2-2.4-2.2s-2.1.5-2.8.9v-.9h-.3l-2,1.3v.2h.7c.4,0,.6.2.6.6v4.8c0,.7-.3.9-1.3,1v.3h3.6v-.3c-1.1,0-1.3-.3-1.3-1v-5.5c.8-.5,1.7-.9,2.7-.9s1.5.5,1.5,1.7v4.7c0,.7-.3.9-1.3,1v.3h3.6ZM121.7,208.2c.4,0,.7-.2.7-.7s-.3-.9-1.3-.9-1.8.4-2.5,1.3v-1.3h-.3l-2,1.3v.2h.7c.4,0,.6.2.6.6v4.8c0,.7-.3.9-1.3,1v.3h3.6v-.3c-1.1,0-1.3-.3-1.3-1v-5c.5-.8,1.2-1.1,1.7-1.1s.8.8,1.4.8M109.1,209.3c.3-1.3,1-2.2,2.6-2.2s2.2.8,2.2,2.2c0,0-4.8,0-4.8,0ZM115,209.8c0-2.1-1.4-3.2-3.3-3.2s-3.9,1.9-3.9,4.3,1.4,4.3,4.3,4.3,2.7-1,3.3-2.4l-.5-.2c-.5,1.3-1.5,2.1-2.7,2.1-2.3,0-3.1-1.7-3.1-3.8s0-.7,0-1.1h5.9,0ZM107.1,214.2c-.4.2-.7.2-1.2.2-.8,0-1.1-.4-1.1-1.3v-5.8h2.2v-.5h-2.2v-2.6h-.3c-.2,1.5-.6,2.5-2,2.9v.2h1.3v5.7c0,1.5.8,1.9,1.8,1.9s1.1-.2,1.5-.4v-.5.2ZM102.2,214.9v-.3c-1.1,0-1.3-.3-1.3-1v-11.6h-.3l-2,1.3v.2h.7c.4,0,.6.2.6.6v9.4c0,.7-.3.9-1.3,1v.3h3.6ZM91.4,204.1l2.4,6.1h-4.7s2.3-6.1,2.3-6.1ZM91.9,202.3h-.4l-2.9,7.6c-2.5,6.7-4.5,8.4-7.2,8.4s-1.4-2-2.6-2-.8.3-.8.8c0,1,1.6,1.9,3.1,1.9,3.4,0,5.4-2.1,7.7-8.2h5.1l1,2.6c.3.7,0,1-1.5,1.1v.3h4.2v-.3c-.9,0-1.3-.6-1.6-1.4l-4.1-10.9h0ZM80.7,214.9v-.3c-1.1,0-1.3-.3-1.3-1v-4.7c0-1.9-1.5-2.2-2.4-2.2s-2.1.5-2.8.9v-.9h-.3l-2,1.3v.2h.7c.4,0,.6.2.6.6v4.8c0,.7-.3.9-1.3,1v.3h3.6v-.3c-1.1,0-1.3-.3-1.3-1v-5.5c.8-.5,1.7-.9,2.7-.9s1.5.5,1.5,1.7v4.7c0,.7-.3.9-1.3,1v.3h3.6ZM64.7,204.1l2.4,6.1h-4.7l2.3-6.1ZM65.2,202.3h-.4l-4.2,11c-.3.7-.7,1.2-1.7,1.3v.3h4v-.3c-1.5,0-1.9-.5-1.7-1.1l1-2.6h5.1l1,2.6c.3.7,0,1-1.5,1.1v.3h4.2v-.3c-.9,0-1.3-.6-1.6-1.4l-4.1-10.9h0Z"/>
    </g>
  </g>
</svg>